<?xml version="1.0" encoding="UTF-8"?> <svg xmlns="http://www.w3.org/2000/svg" width="20" height="20" viewBox="0 0 20 20" fill="none"> <path d="M9.05859 1.73438C8.42578 0.660156 7.26953 0 6.02344 0H5.9375C4.03906 0 2.5 1.53906 2.5 3.4375C2.5 4 2.63672 4.53125 2.875 5H1.875C0.839844 5 0 5.83984 0 6.875V9.375C0 10.1914 0.523437 10.8867 1.25 11.1445V11.25V17.5C1.25 18.8789 2.37109 20 3.75 20H16.25C17.6289 20 18.75 18.8789 18.75 17.5V11.25V11.1445C19.4766 10.8867 20 10.1914 20 9.375V6.875C20 5.83984 19.1602 5 18.125 5H17.125C17.3633 4.53125 17.5 4 17.5 3.4375C17.5 1.53906 15.9609 0 14.0625 0H13.9766C12.7305 0 11.5742 0.660156 10.9414 1.73438L10 3.33984L9.05859 1.73828V1.73438ZM18.125 6.875V9.375H16.875H11.25V6.875H14.0625H18.125ZM8.75 6.875V9.375H3.125H1.875V6.875H5.9375H8.75ZM8.75 11.25V18.125H3.75C3.40625 18.125 3.125 17.8438 3.125 17.5V11.25H8.75ZM11.25 18.125V11.25H16.875V17.5C16.875 17.8438 16.5938 18.125 16.25 18.125H11.25ZM14.0625 5H11.25H11.1992L12.5586 2.6875C12.8555 2.18359 13.3945 1.875 13.9766 1.875H14.0625C14.9258 1.875 15.625 2.57422 15.625 3.4375C15.625 4.30078 14.9258 5 14.0625 5ZM8.75 5H5.9375C5.07422 5 4.375 4.30078 4.375 3.4375C4.375 2.57422 5.07422 1.875 5.9375 1.875H6.02344C6.60547 1.875 7.14844 2.18359 7.44141 2.6875L8.80078 5H8.75Z" fill="white"></path> </svg> 