<?xml version="1.0" encoding="UTF-8"?> <svg xmlns="http://www.w3.org/2000/svg" width="148" height="115" viewBox="0 0 148 115" fill="none"> <g clip-path="url(#clip0_121_929)"> <path d="M91.2507 44.0543C91.5421 43.1826 92.1704 42.5626 92.999 42.4474C92.9475 42.0677 92.9475 41.3228 92.7534 40.7416C92.6648 38.0391 92.4619 36.7024 92.5433 34.6663C92.4207 34.6733 92.2986 34.6865 92.1771 34.706C89.6259 35.1254 87.892 38.0865 88.305 41.3199C88.6011 43.634 89.9153 45.4599 91.573 46.1631C91.3186 45.5451 91.1101 44.7605 91.2507 44.0543Z" fill="#F25C2C"></path> <path d="M91.5718 46.4975C91.5259 46.4975 91.4811 46.4883 91.4394 46.4703C89.601 45.6953 88.2702 43.7387 87.9664 41.3626C87.5312 37.9559 89.3939 34.8194 92.1202 34.3719C92.2531 34.3504 92.3865 34.3355 92.5204 34.3273C92.5683 34.3243 92.6156 34.3313 92.6604 34.3478C92.7053 34.3644 92.7459 34.3901 92.7799 34.4233C92.8139 34.4566 92.8407 34.4966 92.8582 34.5408C92.8757 34.5851 92.884 34.6324 92.8819 34.6799C92.8314 35.9324 92.8896 36.9078 92.9633 38.139C93.007 38.8635 93.0606 39.683 93.0894 40.6836C93.2305 41.1311 93.2702 41.6522 93.2995 42.029C93.3109 42.1773 93.3217 42.3061 93.3346 42.4019C93.3402 42.4461 93.3376 42.491 93.3263 42.5341C93.315 42.5772 93.2949 42.6176 93.2681 42.653C93.2408 42.6885 93.2074 42.7183 93.1687 42.7407C93.1301 42.763 93.0874 42.7776 93.0431 42.7836C92.3757 42.8805 91.8437 43.3706 91.5805 44.1397C91.4569 44.7887 91.6774 45.5239 91.8844 46.0276C91.906 46.0789 91.9142 46.1349 91.9086 46.1904C91.9029 46.2464 91.8839 46.2993 91.853 46.3455C91.8215 46.3922 91.7793 46.4297 91.7299 46.4559C91.6804 46.4821 91.6253 46.496 91.5697 46.4955L91.5718 46.4975ZM92.1892 35.048C89.8425 35.4616 88.2538 38.2445 88.641 41.2774C88.8676 43.051 89.7565 44.6008 90.9837 45.4484C90.8585 44.9716 90.8364 44.4735 90.9198 43.9876C90.9198 43.9741 90.9265 43.9605 90.9306 43.947C91.2309 43.051 91.8581 42.4078 92.6352 42.1792C92.6352 42.1472 92.629 42.1143 92.6275 42.0823C92.5971 41.7026 92.5605 41.2299 92.4328 40.8502C92.4225 40.819 92.4163 40.7863 92.4158 40.7533C92.3824 39.7402 92.3329 38.9129 92.2891 38.1796C92.2176 37.0589 92.163 36.1494 92.1892 35.048Z" fill="#F25C2C"></path> <path d="M22.5419 95.3971C22.5923 95.0961 22.773 94.6416 22.4399 93.9919H20.8606L8.93615 48.7561C8.77161 48.1357 8.37508 47.601 7.82791 47.2631C7.2808 46.9252 6.62461 46.8086 5.99417 46.938C5.80605 46.9765 5.62797 47.0536 5.4709 47.164C5.31383 47.2739 5.18107 47.4151 5.08096 47.579C4.98079 47.7423 4.91534 47.9246 4.88861 48.1141C4.86194 48.3036 4.87455 48.4967 4.92574 48.6816L18.7781 94.0664L18.6596 95.1146C18.6202 95.4613 18.6547 95.8121 18.7608 96.1444C18.8668 96.4767 19.0421 96.7833 19.2751 97.0431C19.5081 97.3035 19.7936 97.5115 20.1128 97.6543C20.432 97.7966 20.7779 97.8705 21.1277 97.87H22.9508C22.6565 97.0149 22.3204 96.3919 22.5419 95.3971Z" fill="#673BE6"></path> <path d="M22.9509 98.2047H21.1278C20.7301 98.2052 20.3369 98.1215 19.9739 97.9597C19.6109 97.7974 19.2863 97.5612 19.0213 97.2653C18.7564 96.9695 18.5571 96.6213 18.4366 96.2433C18.316 95.8653 18.2769 95.4663 18.3218 95.0723L18.4325 94.094L4.60048 48.7759V48.7662C4.53776 48.5366 4.52287 48.2973 4.55676 48.0621C4.59065 47.8268 4.67258 47.6009 4.79746 47.3985C4.9224 47.1962 5.08765 47.0215 5.28299 46.8854C5.47832 46.7493 5.69955 46.6543 5.9331 46.6071C6.64763 46.4617 7.39095 46.5942 8.01068 46.9774C8.63041 47.361 9.07973 47.966 9.26651 48.6691L21.1239 93.6472H22.4419C22.5045 93.6477 22.5658 93.6646 22.6191 93.6975C22.6724 93.7298 22.7156 93.7766 22.744 93.8326C22.9841 94.2896 23.0414 94.8207 22.9043 95.3183C22.8945 95.3646 22.8849 95.4072 22.879 95.4473C22.879 95.4529 22.879 95.4596 22.879 95.4652C22.713 96.2094 22.9004 96.7189 23.1374 97.364C23.184 97.4888 23.2345 97.6166 23.2763 97.7517C23.2942 97.8025 23.2995 97.857 23.2918 97.9109C23.2841 97.9643 23.2637 98.0152 23.2322 98.0593C23.2007 98.103 23.1591 98.1389 23.1108 98.1636C23.0625 98.1883 23.009 98.2011 22.9548 98.2011L22.9509 98.2047ZM5.25219 48.5839L19.1075 93.964C19.121 94.0082 19.1253 94.0549 19.1201 94.1006L19.0007 95.1489C18.9671 95.4478 18.9971 95.7508 19.0889 96.0374C19.1806 96.3239 19.332 96.5884 19.5331 96.8129C19.7343 97.0373 19.9806 97.2171 20.256 97.3398C20.5315 97.4631 20.8299 97.5268 21.1317 97.5268H22.4711C22.2292 96.8673 22.0156 96.2315 22.2137 95.3327C22.2215 95.2855 22.2322 95.2357 22.2438 95.1817C22.2943 94.9455 22.3516 94.682 22.2234 94.3312H20.8636C20.7887 94.3307 20.7161 94.3056 20.6568 94.2599C20.5975 94.2141 20.5548 94.1505 20.5353 94.0786L8.60898 48.8453C8.46711 48.3091 8.12475 47.8469 7.6521 47.5541C7.17945 47.2609 6.61235 47.1597 6.06709 47.2706C5.92532 47.2999 5.79101 47.3579 5.67241 47.4411C5.55376 47.5238 5.45329 47.6301 5.37707 47.7529C5.30085 47.8756 5.25049 48.0128 5.22902 48.1555C5.20754 48.2983 5.21542 48.4442 5.25219 48.5839Z" fill="#673BE6"></path> <path d="M39.8072 97.1887C39.6033 96.2355 39.1526 95.1174 38.6903 94.0096H33.4531C34.9683 95.9073 37.4645 96.5601 39.8072 97.1887Z" fill="#673BE6"></path> <path d="M39.8075 97.5275C39.7777 97.5275 39.748 97.5234 39.7191 97.5157L39.6366 97.4936C37.2365 96.8496 34.7539 96.183 33.1873 94.2206C33.1474 94.1708 33.1225 94.1107 33.1154 94.047C33.1083 93.9838 33.1192 93.9196 33.1471 93.8621C33.1748 93.8046 33.2183 93.7563 33.2725 93.7224C33.3267 93.6885 33.3894 93.6705 33.4534 93.6705H38.6906C38.7577 93.6705 38.8234 93.69 38.8792 93.7275C38.935 93.765 38.9785 93.8174 39.0043 93.8796C39.4831 95.0284 39.9309 96.1404 40.1397 97.1177C40.1523 97.1742 40.15 97.2333 40.133 97.2887C40.1159 97.3442 40.0848 97.3945 40.0426 97.4346C39.979 97.4942 39.8949 97.5275 39.8075 97.5275ZM34.2236 94.3485C35.5562 95.6191 37.4483 96.1974 39.3364 96.7099C39.0878 95.9077 38.796 95.1193 38.4623 94.3485H34.2236Z" fill="#673BE6"></path> <path d="M66.5893 96.2974L66.0202 95.619C65.6134 95.1321 65.1046 94.7402 64.5293 94.4706C63.9536 94.2015 63.3263 94.0613 62.6903 94.0608L44.7627 94.0315C45.8078 95.4495 47.1501 96.4433 48.2848 97.8695H65.8528C66.0362 97.87 66.2154 97.8181 66.3699 97.7206C66.5244 97.623 66.6474 97.4833 66.7247 97.3179C66.8025 97.1525 66.8308 96.9687 66.8066 96.7879C66.7824 96.6071 66.7072 96.4366 66.5893 96.2974Z" fill="#673BE6"></path> <path d="M65.8523 98.2045H48.2838C48.2323 98.2045 48.1818 98.1932 48.136 98.1711C48.0896 98.149 48.0495 98.1167 48.0175 98.0766C47.4999 97.449 46.9453 96.8528 46.3565 96.2904C45.7174 95.6561 45.057 95.0003 44.4878 94.2294C44.4506 94.1785 44.4282 94.119 44.423 94.0563C44.4179 93.9936 44.4302 93.931 44.4586 93.875C44.4877 93.819 44.5313 93.7728 44.5848 93.7399C44.6384 93.7071 44.6998 93.6896 44.7626 93.6891L62.6903 93.7179C63.3768 93.7168 64.0545 93.8673 64.6756 94.158C65.2972 94.4482 65.8461 94.8719 66.2844 95.3983L66.8534 96.0767C67.0115 96.2657 67.112 96.4958 67.1439 96.7398C67.1753 96.9842 67.1367 97.2323 67.0321 97.4552C66.9271 97.6781 66.7613 97.8666 66.5527 97.9986C66.3446 98.1306 66.1026 98.2009 65.8559 98.2009L65.8523 98.2045ZM48.4465 97.5266H65.8523C65.9697 97.5266 66.0846 97.4927 66.184 97.43C66.2828 97.3669 66.3622 97.277 66.4116 97.1712C66.4615 97.0649 66.4806 96.9467 66.4657 96.8307C66.4507 96.7141 66.4028 96.6047 66.3282 96.5143L65.7586 95.8364C65.3842 95.387 64.9145 95.0254 64.3841 94.7769C63.8537 94.5288 63.2748 94.3999 62.6888 94.3999L45.4649 94.3716C45.8913 94.8755 46.3536 95.3346 46.8363 95.8133C47.4026 96.3561 47.9403 96.9277 48.4465 97.5266Z" fill="#673BE6"></path> <path d="M111.889 25.0804C110.159 23.7776 102.89 21.4964 90.6174 22.9959C88.1177 23.301 87.388 24.4633 86.9997 25.712C86.7283 26.5837 86.6974 31.1654 90.0376 33.0737C91.584 33.958 93.4575 33.2848 95.1245 32.7191C99.7439 31.1519 105.885 29.5352 110.699 29.14C110.899 32.3365 113.074 35.1814 114.791 35.5767C114.878 35.596 115.299 29.7851 115.179 29.0393C114.673 26.0568 114.202 23.4734 111.889 25.0804Z" fill="#333333"></path> <path d="M114.787 35.9177C114.761 35.9176 114.736 35.9147 114.711 35.909C112.893 35.4905 110.721 32.7018 110.385 29.5091C106.285 29.8908 100.656 31.2014 95.2332 33.0427L95.107 33.0853C93.4209 33.6588 91.5129 34.3087 89.8676 33.3691C86.3498 31.3573 86.3554 26.6361 86.6742 25.6113C87.0702 24.3394 87.8396 22.996 90.5834 22.6588C97.3502 21.8336 102.301 22.2007 105.262 22.653C108.689 23.1771 110.89 24.0092 111.898 24.6707C112.578 24.2445 113.161 24.1409 113.667 24.354C114.819 24.8383 115.154 26.8531 115.513 28.986C115.595 29.48 115.466 31.6605 115.406 32.5759C115.208 35.6571 115.137 35.7239 115.03 35.8247C114.964 35.8859 114.877 35.9193 114.787 35.9177ZM110.7 28.803C110.786 28.803 110.869 28.8359 110.933 28.8949C110.996 28.9539 111.034 29.0346 111.04 29.1207C111.214 31.9065 112.975 34.4851 114.521 35.134C114.655 33.8748 114.94 29.698 114.841 29.0965C114.549 27.3258 114.211 25.3187 113.405 24.9787C113.087 24.8451 112.644 24.9729 112.088 25.3585C112.03 25.3996 111.96 25.421 111.888 25.4197C111.816 25.4183 111.747 25.3941 111.689 25.3507C110.33 24.3278 103.553 21.7609 90.6679 23.332C88.4509 23.6033 87.7278 24.5197 87.3261 25.8128C87.0774 26.61 87.0347 30.9679 90.2075 32.7812C91.5819 33.5677 93.2634 32.9962 94.8892 32.4432L95.0153 32.4005C100.642 30.4913 106.495 29.1468 110.673 28.804L110.7 28.803Z" fill="#333333"></path> <path d="M117.54 44.7459C120.566 44.5449 122.806 41.1854 122.543 37.2424C122.279 33.2993 119.613 30.2657 116.587 30.4667C113.56 30.6677 111.32 34.0271 111.584 37.9702C111.847 41.9133 114.514 44.9469 117.54 44.7459Z" fill="#F25C2C"></path> <path d="M117.247 45.0849C116.21 45.0849 115.194 44.7323 114.27 44.0465C112.676 42.8628 111.594 40.8577 111.302 38.5446C110.788 34.4569 112.947 30.6986 116.117 30.1707C117.416 29.9537 118.712 30.2898 119.863 31.1442C121.457 32.3278 122.539 34.3329 122.83 36.646C123.345 40.7337 121.185 44.4921 118.016 45.021C117.762 45.0633 117.505 45.0848 117.247 45.0849ZM116.88 30.7848C116.662 30.7851 116.444 30.8032 116.229 30.839C113.412 31.3098 111.506 34.7291 111.977 38.4603C112.245 40.5913 113.23 42.4318 114.676 43.5031C115.675 44.2441 116.791 44.5376 117.903 44.3516C120.72 43.8809 122.625 40.4625 122.156 36.7303C121.887 34.5993 120.903 32.7589 119.456 31.6933C118.653 31.0938 117.773 30.7867 116.88 30.7867V30.7848Z" fill="#F25C2C"></path> <path d="M30.4338 10.9634C32.8494 9.5802 35.7487 9.3419 38.5353 9.38843C41.3219 9.43491 44.1241 9.74295 46.8776 9.32736C49.9496 8.86437 52.8139 7.52571 55.824 6.75755C58.834 5.98943 62.2627 5.87028 64.8073 7.64774C67.1473 9.27991 68.271 12.2585 68.2602 15.1063C68.2535 16.8353 67.8827 18.5286 67.3271 20.1723C67.0479 21.0003 66.9851 21.8856 67.1453 22.7445C67.3049 23.6034 67.6819 24.4074 68.2401 25.0805C69.7573 26.916 70.4283 29.4723 69.8273 31.7874C69.0502 34.8008 66.1771 37.1294 63.0795 37.3706C62.8792 37.386 62.6876 37.4564 62.5249 37.5741C62.3627 37.6917 62.2365 37.852 62.1598 38.0371C61.6741 39.214 60.792 40.7977 59.1178 41.8913C57.6547 42.8474 49.8584 46.0998 44.0532 40.4384C42.8041 39.2208 40.8197 38.937 39.1084 39.2808C36.8054 39.7438 34.8435 41.5087 32.4949 41.5891C30.0376 41.6714 27.891 39.6886 27.1072 37.3638C25.8504 33.6394 29.6199 31.3098 29.1012 28.7565C28.7361 26.9606 26.2554 25.622 24.9626 24.3191C23.1658 22.5077 23.3211 19.0284 25.423 17.5841C26.1291 17.0934 26.6307 16.3619 26.8333 15.5277C27.1112 14.483 27.6255 13.5157 28.3368 12.7002C28.9309 12.0057 29.6402 11.4182 30.4338 10.9634Z" fill="#673BE6"></path> <path d="M25.0149 80.1225H25.0042C24.9141 80.1194 24.8289 80.0809 24.7672 80.0157C24.7055 79.9499 24.6723 79.8626 24.6749 79.7727L25.2266 62.3905C25.228 62.3458 25.2382 62.3022 25.2566 62.2616C25.275 62.221 25.3012 62.1846 25.3338 62.1538C25.3663 62.1235 25.4046 62.0998 25.4463 62.0839C25.4882 62.068 25.5326 62.0608 25.5772 62.0623C25.6219 62.0634 25.6658 62.0736 25.7066 62.0921C25.7472 62.1106 25.7839 62.1368 25.8145 62.1692C25.8451 62.2015 25.8689 62.2395 25.8847 62.2811C25.9005 62.3232 25.9079 62.3674 25.9065 62.4121L25.3587 79.7943C25.3559 79.8831 25.3184 79.9669 25.254 80.0285C25.1898 80.0901 25.1039 80.1235 25.0149 80.1225Z" fill="#333333"></path> <path d="M32.2835 73.8444C32.2641 73.8464 32.2446 73.8464 32.2253 73.8444C32.1812 73.8366 32.1392 73.8207 32.1014 73.7966C32.0637 73.773 32.031 73.7416 32.0053 73.7052C31.9796 73.6687 31.9613 73.6276 31.9516 73.5845C31.9418 73.5408 31.9407 73.4956 31.9484 73.452C33.3568 65.3492 34.9749 57.2012 36.7563 49.236C36.7655 49.1919 36.7833 49.1503 36.8089 49.1133C36.8344 49.0763 36.8671 49.0445 36.9049 49.0203C36.9428 48.9957 36.9852 48.9792 37.0295 48.9715C37.0739 48.9633 37.1194 48.9644 37.1634 48.9746C37.2073 48.9844 37.2489 49.0029 37.2856 49.0286C37.3224 49.0547 37.3536 49.0876 37.3774 49.1256C37.4013 49.1636 37.4173 49.2062 37.4246 49.2509C37.4318 49.2951 37.4301 49.3403 37.4197 49.3839C35.6402 57.3393 34.0202 65.476 32.6176 73.5691C32.6029 73.6466 32.5614 73.7165 32.5004 73.7668C32.4394 73.8171 32.3627 73.8444 32.2835 73.8444Z" fill="#333333"></path> <path d="M38.7821 73.326C38.7347 73.3255 38.6877 73.3158 38.6442 73.2967C38.562 73.2603 38.4976 73.1925 38.4652 73.1088C38.4328 73.0245 38.435 72.9316 38.4713 72.8494L40.5062 68.2842C40.5244 68.2436 40.5504 68.2066 40.5828 68.1758C40.6152 68.1455 40.6534 68.1214 40.6951 68.1054C40.7368 68.0895 40.7812 68.0818 40.8259 68.0829C40.8706 68.0839 40.9146 68.0942 40.9554 68.1121C40.9962 68.1301 41.0331 68.1563 41.0638 68.1886C41.0945 68.221 41.1186 68.259 41.1346 68.3006C41.1506 68.3422 41.1582 68.3864 41.1571 68.4311C41.1559 68.4757 41.146 68.5194 41.1278 68.56L39.093 73.1242C39.0663 73.1843 39.0228 73.2356 38.9676 73.2711C38.9124 73.307 38.848 73.326 38.7821 73.326Z" fill="#333333"></path> <path d="M40.9143 80.835C40.8503 80.835 40.7877 80.817 40.7334 80.7831C40.6793 80.7492 40.6358 80.7004 40.6079 80.6429C40.5802 80.5854 40.5692 80.5212 40.5763 80.458C40.5834 80.3943 40.6084 80.3342 40.6482 80.2844L50.8008 67.5573C50.8569 67.4869 50.9388 67.4417 51.0284 67.4315C51.1185 67.4217 51.2081 67.4474 51.2787 67.5034C51.3492 67.5594 51.3951 67.641 51.4049 67.7304C51.4152 67.8197 51.3894 67.9096 51.3333 67.98L41.1804 80.7071C41.1487 80.7466 41.1082 80.779 41.0622 80.8011C41.016 80.8237 40.9655 80.835 40.9143 80.835Z" fill="#333333"></path> <path d="M114.203 38.1106C114.128 38.1105 114.055 38.0858 113.996 38.0401C113.936 37.9945 113.894 37.9306 113.875 37.8583C113.856 37.7861 113.861 37.7095 113.889 37.6406C113.919 37.5716 113.97 37.5142 114.035 37.4771C116.58 36.0358 118.862 35.906 119.724 35.9176C119.814 35.9176 119.9 35.9533 119.964 36.0169C120.028 36.0805 120.064 36.1667 120.064 36.2567C120.064 36.3466 120.028 36.4328 119.964 36.4964C119.9 36.56 119.814 36.5957 119.724 36.5957C118.916 36.587 116.78 36.708 114.381 38.067C114.327 38.0979 114.265 38.113 114.203 38.1106Z" fill="#333333"></path> <path d="M116.346 39.4889C116.264 39.4903 116.184 39.4615 116.12 39.4081C116.058 39.3548 116.016 39.2804 116.005 39.1988C115.993 39.1172 116.011 39.0342 116.056 38.9651C116.101 38.896 116.17 38.8457 116.249 38.8235L118.597 38.1454C118.683 38.1198 118.777 38.1294 118.856 38.1724C118.936 38.2154 118.995 38.2881 119.021 38.3745C119.047 38.461 119.037 38.554 118.994 38.6333C118.951 38.7126 118.878 38.7717 118.791 38.7973L116.443 39.4754C116.411 39.4842 116.379 39.4888 116.346 39.4889Z" fill="#333333"></path> <path d="M101.644 95.7904C101.559 95.7904 101.476 95.7581 101.414 95.7C101.351 95.642 101.313 95.5624 101.306 95.4777C100.593 86.4201 101.437 77.3076 103.803 68.5336C103.83 68.4509 103.888 68.3815 103.965 68.3399C104.042 68.2989 104.132 68.2881 104.216 68.3107C104.3 68.3333 104.373 68.3872 104.418 68.4617C104.464 68.5361 104.479 68.625 104.461 68.7102C102.115 77.4093 101.279 86.4443 101.988 95.4242C101.995 95.5141 101.966 95.603 101.907 95.6713C101.849 95.7401 101.765 95.7822 101.675 95.7894L101.644 95.7904Z" fill="#333333"></path> <path d="M105.596 72.3872C101.252 72.3872 97.101 71.5891 95.0488 69.6092C95.0128 69.5794 94.9834 69.5424 94.9623 69.5003C94.9417 69.4587 94.9293 69.413 94.9273 69.3663C94.9247 69.3195 94.9319 69.2733 94.9484 69.2297C94.9649 69.1855 94.9906 69.1459 95.0231 69.1126C95.0555 69.0792 95.0951 69.0525 95.1384 69.035C95.1817 69.0176 95.228 69.0088 95.2749 69.0098C95.3217 69.0114 95.3681 69.0222 95.4103 69.0417C95.4525 69.0617 95.4907 69.09 95.5215 69.1249C99.2181 72.6902 110.92 72.1586 116.599 69.924C116.682 69.8927 116.774 69.8958 116.856 69.9317C116.937 69.9677 117.001 70.0344 117.034 70.1171C117.067 70.1998 117.065 70.2918 117.031 70.3734C116.996 70.4556 116.93 70.5203 116.848 70.5547C114.016 71.6666 109.719 72.3872 105.596 72.3872Z" fill="#333333"></path> <path d="M139.575 136.732H139.569C139.524 136.732 139.48 136.722 139.439 136.705C139.398 136.687 139.361 136.661 139.33 136.629C139.299 136.597 139.275 136.559 139.258 136.518C139.242 136.477 139.234 136.432 139.235 136.388C139.429 125.719 140.052 117.633 140.604 110.497C141.331 101.115 141.958 93.0115 141.29 82.4841C140.928 76.7695 139.97 70.416 135.616 66.5754C132.624 63.9366 128.331 62.7276 124.879 61.9752C121.664 64.7172 117.743 66.7603 113.526 67.884C109.252 69.0262 104.769 69.2034 100.562 68.3955C98.3276 67.9662 95.4916 66.4814 94.6476 63.6973H94.63C90.0853 64.5488 83.2171 65.8353 78.8881 69.6137C74.5175 73.4322 72.8006 81.9972 72.266 85.4999L72.1795 86.0694C70.8575 94.7757 69.1998 104.13 66.249 104.909C66.2052 104.923 66.1589 104.928 66.1135 104.923C66.0677 104.918 66.0234 104.905 65.9832 104.883C65.9431 104.86 65.9075 104.831 65.8792 104.795C65.8509 104.758 65.8303 104.717 65.819 104.673C65.8071 104.628 65.8046 104.582 65.8112 104.537C65.8174 104.492 65.8334 104.448 65.8576 104.409C65.8813 104.37 65.9132 104.336 65.9503 104.31C65.9879 104.283 66.0301 104.264 66.0749 104.255C66.8716 104.043 68.1034 102.654 69.4419 97.2245C70.3693 93.463 71.0548 88.9532 71.5074 85.9678L71.594 85.3982C72.1398 81.8288 73.898 73.0789 78.4406 69.1073C82.9086 65.2067 89.8871 63.9001 94.5044 63.0347L94.8299 62.9741C94.9148 62.9592 95.0024 62.9772 95.0745 63.0245C95.1466 63.0712 95.1981 63.1441 95.2187 63.2279C95.8634 65.9 98.5666 67.3242 100.685 67.7299C108.961 69.3195 118.055 66.9097 124.455 61.4339C124.494 61.3677 124.553 61.3158 124.625 61.286C124.696 61.2562 124.774 61.2506 124.849 61.269C128.41 62.0374 132.9 63.2751 136.057 66.0597C140.596 70.0636 141.587 76.5836 141.959 82.4302C142.63 93.0049 142.001 101.13 141.273 110.538C140.72 117.664 140.095 125.739 139.905 136.388C139.907 136.477 139.873 136.563 139.811 136.628C139.749 136.692 139.665 136.73 139.575 136.732Z" fill="#333333"></path> <path d="M89.6033 132.35C88.9235 132.35 88.4003 131.866 87.9348 131.44C87.8292 131.344 87.7298 131.247 87.6299 131.167C86.2796 130.015 84.3273 129.938 82.4425 129.865L82.219 129.856C74.8054 129.56 67.9731 128.286 61.9102 126.078C55.4143 123.708 50.1033 120.355 46.1251 116.111C46.0838 116.067 46.055 116.013 46.0417 115.954C46.0283 115.895 46.0308 115.834 46.049 115.777C46.0672 115.72 46.1004 115.668 46.1452 115.628C46.19 115.587 46.2447 115.559 46.3038 115.547C52.4228 114.269 59.2926 107.41 61.3093 100.583C61.3268 100.524 61.3602 100.471 61.4061 100.429C61.4519 100.387 61.508 100.359 61.5688 100.347C61.6296 100.335 61.6929 100.339 61.7511 100.36C61.8093 100.381 61.8608 100.418 61.8994 100.466C67.024 106.803 77.611 108.942 81.9255 109.572C87.2056 110.337 91.8646 109.024 97.5031 105.18C103.278 101.244 107.58 91.7399 110.72 84.8014C112.231 81.4652 113.537 78.5845 114.675 76.9991C116.872 73.9479 120.337 69.831 125.068 69.2912C125.158 69.2815 125.249 69.3071 125.32 69.3636C125.39 69.4201 125.436 69.5023 125.446 69.5922C125.456 69.6821 125.43 69.7724 125.374 69.8433C125.317 69.9137 125.235 69.9594 125.145 69.9697C120.682 70.4761 117.348 74.4512 115.228 77.3981C114.127 78.9296 112.836 81.781 111.343 85.0834C108.168 92.0964 103.822 101.7 97.8893 105.743C95.1223 107.629 92.6978 108.858 90.2599 109.607C87.5351 110.455 84.6523 110.674 81.8302 110.246C79.0478 109.843 74.8527 109.001 70.6752 107.281C66.8175 105.694 63.8275 103.71 61.7764 101.373C60.732 104.473 58.6401 107.766 55.9643 110.485C53.1638 113.333 50.0152 115.3 47.0284 116.076C54.6743 123.931 67.1507 128.581 82.2463 129.186L82.4683 129.194C84.3778 129.269 86.5423 129.353 88.0718 130.658C88.1814 130.755 88.2901 130.852 88.3962 130.948C88.8283 131.347 89.2382 131.723 89.6919 131.673C90.1039 131.627 90.4128 131.239 90.7399 130.828C90.8563 130.681 90.9768 130.529 91.105 130.39C92.2349 129.164 94.01 128.959 95.573 128.777L95.8526 128.744C101.868 128.033 107.883 125.523 113.249 121.488C117.982 117.927 122.249 113.168 125.933 107.346L126.156 106.991C127.623 104.666 129.285 102.022 132.001 101.072C132.043 101.055 132.089 101.047 132.134 101.049C132.18 101.05 132.225 101.06 132.266 101.079C132.308 101.098 132.345 101.126 132.376 101.159C132.406 101.192 132.43 101.232 132.446 101.275C132.46 101.318 132.467 101.363 132.464 101.409C132.461 101.454 132.449 101.499 132.429 101.54C132.408 101.58 132.38 101.616 132.345 101.646C132.31 101.675 132.27 101.697 132.226 101.711C129.735 102.583 128.208 105.004 126.732 107.351L126.507 107.708C122.78 113.604 118.457 118.424 113.658 122.034C108.197 126.142 102.068 128.696 95.9334 129.423L95.6517 129.455C94.1315 129.631 92.5603 129.813 91.6025 130.854C91.4907 130.975 91.3831 131.11 91.2682 131.253C90.8877 131.732 90.4561 132.274 89.7629 132.352C89.7099 132.354 89.6563 132.354 89.6033 132.35Z" fill="#333333"></path> <path d="M84.1896 110.453C84.1036 110.453 84.0207 110.42 83.9579 110.361C83.895 110.303 83.8569 110.222 83.8507 110.137C83.4902 104.615 83.1514 99.8136 82.9866 97.8949C82.9789 97.8045 83.0072 97.7156 83.0654 97.6463C83.1236 97.5775 83.207 97.5343 83.2971 97.5266C83.3873 97.5189 83.4769 97.5472 83.5459 97.6052C83.6154 97.6633 83.6586 97.7465 83.6664 97.8363C83.8322 99.7602 84.1721 104.57 84.5326 110.093C84.5387 110.182 84.5084 110.271 84.4491 110.338C84.3899 110.406 84.306 110.447 84.2159 110.453H84.1896Z" fill="#333333"></path> <path d="M116.435 66.6051C116.348 66.6051 116.264 66.5717 116.202 66.5116C116.138 66.4515 116.101 66.3693 116.097 66.2825C115.931 62.9294 115.781 60.4565 115.636 58.0647C115.491 55.6729 115.345 53.1975 115.176 49.8402C115.135 49.0174 115.079 47.8901 115.661 47.0191C116.034 46.4644 116.584 46.1203 117.118 45.787C117.373 45.6342 117.62 45.4676 117.857 45.2883C117.927 45.2349 118.016 45.2113 118.104 45.2226C118.193 45.2339 118.273 45.2791 118.328 45.3486C118.383 45.4181 118.409 45.5064 118.4 45.5945C118.39 45.6827 118.347 45.7634 118.278 45.8199C118.022 46.0145 117.755 46.1953 117.48 46.3617C116.986 46.6704 116.52 46.9621 116.229 47.396C115.804 48.0298 115.807 48.8628 115.855 49.8068C116.02 53.1605 116.17 55.6334 116.314 58.0241C116.459 60.4149 116.606 62.8914 116.775 66.2486C116.777 66.2933 116.771 66.338 116.756 66.3796C116.741 66.4217 116.718 66.4602 116.687 66.4936C116.657 66.5265 116.621 66.5532 116.581 66.5722C116.54 66.5912 116.497 66.602 116.452 66.604L116.435 66.6051Z" fill="#333333"></path> <path d="M102.638 53.4559C101.704 53.4569 100.772 53.3568 99.8594 53.1565C98.5843 52.8756 97.5651 52.4447 96.7437 51.8376C95.6092 50.9984 94.691 49.6831 94.0174 47.9251C92.5796 44.1813 92.2098 37.054 92.2443 35.57C92.2454 35.5254 92.2546 35.4814 92.2727 35.4405C92.2907 35.3996 92.3164 35.3627 92.3489 35.3319C92.3813 35.3012 92.4194 35.2772 92.4612 35.2613C92.5029 35.2455 92.5477 35.2382 92.5925 35.2397C92.6368 35.2407 92.6811 35.2505 92.7217 35.2685C92.7629 35.2864 92.7995 35.3122 92.8304 35.3444C92.8613 35.3767 92.8855 35.4146 92.9015 35.4561C92.9179 35.4977 92.9257 35.5419 92.9246 35.5865C92.8896 37.0394 93.2506 44.0311 94.6524 47.6827C95.2796 49.318 96.1191 50.5316 97.1485 51.2922C97.8916 51.8412 98.8258 52.2346 100.006 52.494C102.395 53.0132 104.883 52.8175 107.161 51.9321C107.245 51.8992 107.338 51.9008 107.421 51.9367C107.504 51.9727 107.569 52.04 107.602 52.1237C107.635 52.2074 107.633 52.3009 107.597 52.3836C107.561 52.4657 107.494 52.531 107.41 52.5638C105.889 53.1555 104.271 53.458 102.638 53.4559Z" fill="#333333"></path> <path d="M99.6438 67.8538C99.5578 67.8538 99.4749 67.8209 99.4115 67.7619C99.3487 67.7028 99.3106 67.6222 99.3049 67.5364C99.2874 67.2621 99.2673 66.9463 99.2457 66.593C99.0515 63.5428 98.6962 57.8651 97.8609 52.3297C97.8527 52.2429 97.8779 52.1561 97.932 52.0878C97.9855 52.0195 98.0643 51.9743 98.1503 51.962C98.2368 51.9492 98.3249 51.9707 98.396 52.0211C98.467 52.0714 98.516 52.1474 98.533 52.2327C99.3729 57.7973 99.7313 63.494 99.9239 66.5549C99.9461 66.9068 99.9656 67.2226 99.9842 67.4969C99.9898 67.5862 99.96 67.6746 99.9002 67.7423C99.841 67.8096 99.7571 67.8512 99.6675 67.8569L99.6438 67.8538Z" fill="#333333"></path> <path d="M101.717 44.3937C100.903 44.3937 100.272 44.1525 99.8923 43.6963C99.7538 43.5197 99.659 43.3127 99.6157 43.0924C99.573 42.8721 99.5833 42.6449 99.6456 42.4293C99.6899 42.2593 99.7759 42.1029 99.8959 41.9742C100.016 41.8456 100.166 41.7486 100.333 41.6921C100.469 41.6524 100.609 41.6293 100.75 41.6234C100.859 41.6264 100.967 41.6038 101.065 41.5575C101.181 41.4665 101.148 41.1274 101.138 41.016L100.793 37.463C100.788 37.4185 100.793 37.3736 100.806 37.3308C100.819 37.288 100.84 37.2482 100.869 37.2136C100.898 37.1791 100.933 37.1505 100.972 37.1295C101.012 37.1085 101.055 37.0954 101.1 37.0911C101.144 37.0867 101.19 37.0912 101.232 37.1043C101.275 37.1173 101.315 37.1386 101.35 37.1671C101.385 37.1955 101.413 37.2304 101.434 37.2699C101.455 37.3094 101.469 37.3527 101.473 37.3972L101.82 40.9502C101.844 41.1962 101.9 41.7716 101.489 42.0922C101.27 42.2627 101.015 42.2859 100.809 42.2995C100.72 42.3029 100.632 42.3156 100.545 42.3372C100.485 42.3609 100.431 42.399 100.389 42.4484C100.347 42.4977 100.317 42.5567 100.303 42.6201C100.272 42.7291 100.266 42.8438 100.287 42.9554C100.307 43.0669 100.353 43.1723 100.421 43.2633C100.738 43.6459 101.324 43.7214 101.76 43.7156C101.85 43.7156 101.937 43.7513 102.001 43.8149C102.064 43.8785 102.1 43.9647 102.1 44.0547C102.1 44.1446 102.064 44.2308 102.001 44.2944C101.937 44.358 101.85 44.3937 101.76 44.3937H101.717Z" fill="#333333"></path> <path d="M106.93 41.7791C106.916 41.78 106.903 41.78 106.889 41.7791L105.044 41.5611C104.999 41.5559 104.956 41.5419 104.917 41.5201C104.877 41.4982 104.843 41.4689 104.815 41.4337C104.787 41.3985 104.767 41.3583 104.754 41.3151C104.742 41.272 104.738 41.2269 104.743 41.1824C104.749 41.1379 104.763 41.0948 104.785 41.0556C104.807 41.0165 104.836 40.9821 104.871 40.9543C104.907 40.9265 104.947 40.9059 104.99 40.8936C105.033 40.8815 105.079 40.8778 105.124 40.8831L106.969 41.101C107.059 41.1062 107.143 41.1468 107.204 41.214C107.264 41.2812 107.294 41.3695 107.289 41.4594C107.284 41.5493 107.243 41.6335 107.176 41.6934C107.109 41.7534 107.02 41.7842 106.93 41.7791Z" fill="#F25C2C"></path> <path d="M102.062 48.3716C101.85 48.3721 101.639 48.3598 101.43 48.3352C101.34 48.3239 101.259 48.2782 101.203 48.2073C101.147 48.1364 101.122 48.0465 101.134 47.9572C101.144 47.8678 101.19 47.7867 101.261 47.7312C101.332 47.6757 101.422 47.6511 101.512 47.6619C103.913 47.9525 107.091 46.2649 107.914 44.7316C107.958 44.655 108.03 44.5986 108.115 44.5742C108.2 44.5498 108.291 44.5595 108.369 44.6011C108.447 44.6427 108.506 44.713 108.533 44.797C108.56 44.8811 108.552 44.9723 108.513 45.0513C108.028 45.9568 106.959 46.853 105.569 47.5109C104.392 48.0696 103.148 48.3716 102.062 48.3716Z" fill="#333333"></path> <path d="M94.2515 48.5056H94.2098C93.0213 48.3593 90.761 46.9341 90.9212 44.3015C91.001 42.9793 92.1839 42.2461 93.013 42.2257C93.0578 42.2246 93.1021 42.2322 93.1438 42.2482C93.1855 42.2642 93.2236 42.2882 93.2561 42.3189C93.2885 42.3495 93.3148 42.3862 93.3328 42.427C93.3508 42.4676 93.3606 42.5115 93.3622 42.556C93.3632 42.6006 93.3555 42.6449 93.3395 42.6864C93.3236 42.728 93.2993 42.766 93.2684 42.7983C93.2376 42.8306 93.201 42.8565 93.1603 42.8746C93.1191 42.8927 93.0753 42.9026 93.0305 42.9038C92.5449 42.9154 91.6566 43.4065 91.5989 44.3432C91.464 46.571 93.4446 47.7276 94.2922 47.8303C94.337 47.8328 94.3808 47.8441 94.421 47.8637C94.4611 47.8832 94.4972 47.9104 94.5271 47.9438C94.5564 47.9772 94.5791 48.0162 94.594 48.0583C94.6084 48.1004 94.6146 48.1451 94.612 48.1898C94.6095 48.2339 94.5976 48.2776 94.5786 48.3177C94.559 48.3577 94.5317 48.3937 94.4982 48.4235C94.4647 48.4532 94.4256 48.4758 94.3834 48.4902C94.3411 48.5051 94.2963 48.5113 94.2515 48.5082V48.5056Z" fill="#333333"></path> <path d="M105.616 39.0811L105.628 39.0799C105.714 39.0717 105.777 38.9955 105.769 38.9098L105.617 37.3246C105.608 37.2388 105.532 37.176 105.446 37.1842L105.434 37.1854C105.348 37.1936 105.284 37.2698 105.293 37.3555L105.445 38.9407C105.453 39.0264 105.53 39.0893 105.616 39.0811Z" fill="#333333"></path> <path d="M105.602 39.6606C105.419 39.6603 105.242 39.5919 105.106 39.4687C104.971 39.3455 104.886 39.1764 104.868 38.9942L104.715 37.4085C104.697 37.214 104.757 37.0201 104.881 36.8694C105.006 36.7187 105.186 36.6235 105.38 36.6046H105.393C105.588 36.5859 105.783 36.6453 105.934 36.7695C106.084 36.8938 106.18 37.0727 106.198 37.2671L106.351 38.8537C106.36 38.9501 106.351 39.0473 106.322 39.1399C106.293 39.2324 106.247 39.3184 106.185 39.3931C106.124 39.4676 106.048 39.5294 105.962 39.5746C105.876 39.6199 105.782 39.6478 105.686 39.6567H105.673C105.649 39.6606 105.626 39.6606 105.602 39.6606Z" fill="#333333"></path> <path d="M96.3792 42.7864C96.2984 42.786 96.2206 42.7569 96.1593 42.7043C96.0981 42.6517 96.0574 42.5791 96.045 42.4994C96.0327 42.4197 96.0491 42.3383 96.0919 42.2697C96.1341 42.201 96.1995 42.1497 96.2762 42.1248L98.0519 41.5601C98.0946 41.5457 98.14 41.5399 98.1853 41.5431C98.2301 41.5463 98.2738 41.5584 98.3145 41.5788C98.3547 41.5991 98.3907 41.6273 98.4196 41.6616C98.4489 41.6959 98.4711 41.7356 98.485 41.7786C98.4984 41.8215 98.5035 41.8667 98.4994 41.9116C98.4953 41.9565 98.4824 42.0001 98.4613 42.0399C98.4402 42.0797 98.4113 42.1149 98.3763 42.1435C98.3413 42.172 98.3011 42.1933 98.2579 42.2062L96.4833 42.7709C96.4498 42.7812 96.4148 42.7864 96.3792 42.7864Z" fill="#F25C2C"></path> <path d="M97.035 37.9786L97.0227 37.9798C96.9367 37.988 96.8733 38.0642 96.8816 38.1499L97.034 39.7351C97.0423 39.8208 97.1185 39.8837 97.2045 39.8755L97.2168 39.8743C97.3028 39.8661 97.3662 39.7899 97.3579 39.7042L97.2055 38.119C97.1973 38.0332 97.121 37.9704 97.035 37.9786Z" fill="#333333"></path> <path d="M97.1885 40.4616C97.0046 40.4613 96.828 40.3929 96.6921 40.2697C96.5566 40.1465 96.4716 39.9774 96.4541 39.7952L96.3022 38.2076C96.2929 38.1113 96.3027 38.0141 96.3311 37.9216C96.3594 37.829 96.4057 37.7429 96.4675 37.6683C96.5293 37.5936 96.605 37.5318 96.6905 37.4864C96.7765 37.441 96.8702 37.4129 96.9665 37.4037H96.9804C97.1751 37.3853 97.3693 37.4448 97.5201 37.5689C97.671 37.6931 97.7668 37.872 97.7854 38.0662L97.9383 39.6529C97.9563 39.8472 97.8966 40.0408 97.772 40.1914C97.6479 40.342 97.4686 40.4375 97.2735 40.4568H97.2601C97.2359 40.4607 97.2127 40.4616 97.1885 40.4616Z" fill="#333333"></path> <path d="M110.228 43.2922C110.153 43.292 110.08 43.267 110.021 43.2213C109.961 43.1756 109.919 43.1117 109.899 43.0394C109.863 42.9113 109.795 42.7945 109.701 42.7001C109.607 42.6057 109.491 42.5368 109.362 42.4999C109.32 42.4882 109.279 42.4682 109.243 42.441C109.208 42.4138 109.178 42.3799 109.156 42.3413C109.134 42.3026 109.12 42.26 109.114 42.2158C109.108 42.1717 109.112 42.1268 109.123 42.0838C109.135 42.0408 109.155 42.0005 109.182 41.9653C109.209 41.93 109.243 41.9005 109.282 41.8783C109.321 41.8561 109.363 41.8417 109.408 41.836C109.452 41.8303 109.497 41.8334 109.54 41.845C109.784 41.9132 110.006 42.0432 110.184 42.2223C110.362 42.4014 110.491 42.6235 110.557 42.867C110.57 42.9171 110.571 42.9696 110.561 43.0204C110.551 43.0712 110.529 43.119 110.497 43.16C110.465 43.201 110.424 43.2343 110.378 43.2572C110.331 43.2801 110.28 43.2921 110.228 43.2922Z" fill="#333333"></path> <path d="M98.2998 52.6007L98.5815 55.0135C98.5815 55.0135 102.827 54.3356 106.366 52.5658C106.366 52.5658 102.395 54.3279 98.2998 52.6007Z" fill="#333333"></path> <path d="M98.5819 55.3528C98.4985 55.3528 98.4182 55.3225 98.3559 55.267C98.2935 55.2115 98.2544 55.135 98.2451 55.0523L97.9624 52.6405C97.9552 52.5815 97.964 52.5219 97.9876 52.4675C98.0108 52.413 98.0484 52.3658 98.0958 52.3298C98.1437 52.2944 98.1998 52.2718 98.2585 52.2646C98.3178 52.2574 98.3775 52.2656 98.4326 52.2887C102.346 53.9358 106.19 52.2743 106.228 52.2569C106.309 52.2184 106.403 52.2137 106.488 52.244C106.573 52.2743 106.642 52.337 106.681 52.4182C106.72 52.4998 106.724 52.5928 106.694 52.6775C106.664 52.7622 106.601 52.8316 106.519 52.8701C102.974 54.6466 98.8111 55.3219 98.6355 55.3492C98.6175 55.3517 98.6 55.3528 98.5819 55.3528ZM98.7035 53.1248L98.8781 54.6214C100.125 54.3836 101.357 54.077 102.569 53.7021C101.256 53.7555 99.9435 53.5593 98.7035 53.1248Z" fill="#333333"></path> <path d="M30.3759 98.3275C30.3067 98.3275 30.239 98.3069 30.1817 98.2684C29.089 97.5207 27.3805 95.9573 25.6108 94.0868C24.5677 92.9852 23.6993 91.1224 24.2578 89.6377C24.8163 88.1529 26.7055 87.6373 28.1293 88.0286C29.6096 88.4364 30.7411 89.972 31.4628 91.0906C34.0688 95.1299 36.8048 96.7272 41.9381 97.193C41.9827 97.1971 42.0261 97.2099 42.0658 97.231C42.1055 97.2515 42.1407 97.2798 42.1693 97.3142C42.198 97.3486 42.2196 97.3881 42.2329 97.4308C42.2462 97.4739 42.251 97.5186 42.2469 97.5633C42.2428 97.6075 42.23 97.6511 42.2091 97.6906C42.1883 97.7302 42.1598 97.7651 42.1254 97.7939C42.0909 97.8221 42.0512 97.8437 42.0084 97.8571C41.9656 97.8704 41.9206 97.875 41.8759 97.8709C36.5037 97.381 33.6297 95.7031 30.8907 91.4588C29.8544 89.8508 28.8918 88.9402 27.9487 88.6834C26.8084 88.3696 25.3087 88.7743 24.894 89.877C24.4589 91.0392 25.1738 92.6385 26.1052 93.6215C28.682 96.3446 30.171 97.439 30.5663 97.7102C30.6267 97.7513 30.6723 97.8103 30.6963 97.8786C30.7204 97.9474 30.7216 98.0219 30.6998 98.0912C30.678 98.1606 30.6343 98.2212 30.5752 98.2638C30.5162 98.3069 30.4449 98.329 30.372 98.3285L30.3759 98.3275Z" fill="#333333"></path> <path d="M29.2192 100.425C29.1443 100.425 29.0716 100.4 29.0123 100.354C28.7404 100.145 28.3985 99.9132 28.0022 99.6461C26.5626 98.7027 25.201 97.6457 23.9306 96.4856C23.3653 95.9663 22.562 95.1554 22.1162 94.1236C21.6704 93.0923 21.6636 91.9393 22.1162 91.0714C22.596 90.1464 23.6615 89.5332 24.5444 89.6729C24.6297 89.6914 24.7047 89.7417 24.7538 89.8136C24.803 89.8855 24.8226 89.9733 24.8086 90.0596C24.7947 90.1454 24.7483 90.2224 24.6789 90.2753C24.6094 90.3282 24.5224 90.3523 24.4356 90.3431C23.9131 90.2578 23.1001 90.6569 22.7233 91.3826C22.3658 92.0723 22.3746 92.9963 22.7456 93.8555C23.1409 94.7686 23.8781 95.5087 24.3968 95.9864C25.6432 97.1239 26.9784 98.1603 28.3897 99.0863C28.7947 99.3601 29.1444 99.5968 29.4329 99.8177C29.4894 99.8608 29.531 99.9204 29.5517 99.9882C29.5723 100.056 29.5711 100.129 29.5482 100.196C29.5252 100.263 29.4816 100.322 29.4237 100.363C29.3657 100.404 29.2962 100.426 29.225 100.426L29.2192 100.425Z" fill="#333333"></path> <path d="M58.809 106.31C58.7652 106.31 58.7219 106.302 58.6818 106.285C57.865 105.955 57.1348 105.684 56.4282 105.422C54.4383 104.681 52.8656 104.097 51.229 102.868C50.698 102.469 50.0538 101.899 49.7906 101.068C49.2468 99.3415 47.6741 97.7745 46.1532 96.2671C44.7128 94.8358 43.352 93.4835 43.0452 92.1087C42.9985 91.8986 42.9548 91.6865 42.9101 91.4744C42.7159 90.552 42.5401 89.6815 42.0952 88.9229C41.8407 88.49 40.8879 87.1172 39.2785 87.6045C38.6074 87.8079 38.1372 88.1751 37.8818 88.6954C37.5283 89.4149 37.5749 90.4786 38.01 91.6141C38.2304 92.1652 38.4787 92.7055 38.754 93.2314C39.2804 94.2806 39.8224 95.3627 40.1274 96.9887C40.1439 97.0776 40.1244 97.169 40.0734 97.243C40.0223 97.3169 39.9437 97.3683 39.855 97.3847C39.7662 97.4011 39.6746 97.3816 39.6001 97.3308C39.5257 97.2799 39.4747 97.2014 39.4582 97.113C39.1736 95.5825 38.651 94.542 38.146 93.5349C37.8808 93.0059 37.6059 92.4584 37.3748 91.856C37.0834 91.081 36.6745 89.6127 37.2709 88.397C37.6137 87.7006 38.2217 87.2153 39.0804 86.9554C40.7403 86.4531 42.0301 87.4654 42.6848 88.5798C43.1869 89.4355 43.3861 90.402 43.5793 91.3378C43.6221 91.5458 43.6661 91.7538 43.7114 91.9618C43.9766 93.1425 45.2655 94.427 46.6369 95.7869C48.2163 97.3559 49.8488 98.9835 50.4436 100.864C50.6058 101.379 50.9638 101.816 51.643 102.326C53.1972 103.495 54.7308 104.069 56.6702 104.786C57.3804 105.05 58.1148 105.323 58.9413 105.658C59.0144 105.687 59.0757 105.742 59.1133 105.811C59.1514 105.88 59.1638 105.961 59.1488 106.038C59.1334 106.116 59.0917 106.185 59.0304 106.235C58.9691 106.286 58.8919 106.312 58.8131 106.312L58.809 106.31Z" fill="#333333"></path> <path d="M51.6351 113.889C51.5496 113.889 51.4672 113.857 51.4049 113.8C47.2894 110.012 43.4597 108.971 39.4055 107.868C34.7988 106.616 30.0356 105.32 24.3895 99.9797C23.4474 99.0876 21.3786 96.7894 22.5519 94.7171C22.5738 94.6785 22.6032 94.6441 22.6383 94.6169C22.6735 94.5892 22.7137 94.5691 22.7568 94.5573C22.7998 94.545 22.8447 94.5419 22.8891 94.5471C22.9334 94.5527 22.9763 94.5666 23.0152 94.5887C23.0541 94.6102 23.0883 94.6395 23.1158 94.6744C23.1434 94.7099 23.1637 94.7499 23.1757 94.7925C23.1877 94.8357 23.1911 94.8804 23.1858 94.9245C23.1804 94.9687 23.1663 95.0118 23.1444 95.0504C22.208 96.7067 24.0302 98.705 24.8577 99.4877C30.3794 104.711 35.0562 105.984 39.5843 107.214C43.721 108.339 47.6284 109.402 51.8653 113.301C51.9153 113.347 51.9503 113.407 51.9657 113.474C51.9812 113.54 51.976 113.61 51.9508 113.673C51.9261 113.737 51.8828 113.791 51.8262 113.83C51.77 113.868 51.7031 113.889 51.6351 113.889Z" fill="#333333"></path> <path d="M94.6729 35.8733C94.5972 35.8729 94.523 35.8471 94.4633 35.8001C94.4036 35.753 94.3613 35.6874 94.3433 35.6137C94.3258 35.5399 94.333 35.4623 94.3644 35.3931C94.3958 35.3239 94.4494 35.2672 94.5169 35.2321C95.3115 34.8249 96.1802 34.5827 97.0712 34.5201C97.1613 34.5139 97.2504 34.5437 97.3184 34.6029C97.3863 34.6621 97.4286 34.746 97.4347 34.8359C97.4409 34.9258 97.411 35.0145 97.3513 35.0824C97.2921 35.1504 97.2081 35.192 97.118 35.1981C96.3193 35.2545 95.5406 35.4717 94.8284 35.8365C94.7805 35.8612 94.727 35.8738 94.6729 35.8733Z" fill="#333333"></path> <path d="M107.259 34.3545C107.228 34.3541 107.198 34.3498 107.168 34.3419C106.396 34.1284 105.589 34.0731 104.796 34.1792C104.752 34.1852 104.707 34.1824 104.664 34.171C104.62 34.1597 104.58 34.1399 104.544 34.1129C104.509 34.086 104.479 34.0523 104.457 34.0138C104.434 33.9753 104.419 33.9328 104.413 33.8886C104.407 33.8445 104.41 33.7996 104.422 33.7565C104.433 33.7135 104.452 33.673 104.48 33.6376C104.507 33.6022 104.54 33.5724 104.579 33.55C104.618 33.5275 104.66 33.513 104.705 33.507C105.59 33.3885 106.49 33.4501 107.35 33.6881C107.431 33.7095 107.5 33.7592 107.545 33.8279C107.591 33.8967 107.61 33.9797 107.599 34.0614C107.588 34.1431 107.547 34.218 107.485 34.272C107.422 34.3259 107.342 34.3553 107.259 34.3545Z" fill="#333333"></path> <path d="M117.175 32.5691C117.157 32.5705 117.14 32.5705 117.122 32.5691C117.078 32.5623 117.036 32.547 116.997 32.5238C116.959 32.5007 116.926 32.4702 116.9 32.4342C116.873 32.3982 116.854 32.3573 116.843 32.314C116.833 32.2706 116.832 32.2256 116.838 32.1816C117.014 31.0342 117.047 29.8693 116.936 28.7138C116.593 25.1473 114.938 21.9217 112.274 19.6319C109.609 17.3419 106.266 16.2668 102.852 16.5932C99.2435 16.9371 95.9373 18.8666 93.7811 21.8849C93.7281 21.9558 93.6493 22.0032 93.5612 22.0168C93.4737 22.0305 93.3841 22.0094 93.312 21.958C93.2393 21.9066 93.1899 21.8291 93.1745 21.7419C93.1585 21.6548 93.1775 21.5649 93.2275 21.4916C95.4986 18.3126 98.9834 16.2813 102.787 15.918C106.391 15.5742 109.919 16.7104 112.721 19.1146C115.524 21.5188 117.257 24.9032 117.616 28.6451C117.733 29.8564 117.699 31.0776 117.513 32.2804C117.502 32.3613 117.46 32.4351 117.398 32.4881C117.336 32.5412 117.256 32.5699 117.175 32.5691Z" fill="#333333"></path> <path d="M99.3023 62.4384C97.8156 62.6345 96.3427 62.9257 94.8936 63.3099C94.8936 63.3099 95.716 66.6857 99.5984 67.7704L99.3023 62.4384Z" fill="#333333"></path> <path d="M99.5986 68.1102C99.5677 68.1102 99.5368 68.1056 99.5069 68.0974C95.4793 66.9716 94.5982 63.5363 94.5631 63.3909C94.5425 63.3046 94.5559 63.2137 94.6012 63.1372C94.6466 63.0612 94.7202 63.0057 94.8062 62.9831C96.2713 62.5954 97.7596 62.3016 99.2623 62.1023C99.3087 62.0972 99.355 62.1008 99.3998 62.1141C99.4441 62.1275 99.4853 62.1501 99.5208 62.1799C99.5564 62.2097 99.5852 62.2461 99.6063 62.2877C99.6269 62.3288 99.6393 62.374 99.6424 62.4202L99.9333 67.7476C99.9359 67.7939 99.9287 67.8396 99.9127 67.8827C99.8968 67.9264 99.8721 67.9659 99.8406 67.9993C99.8087 68.0327 99.7706 68.0594 99.7279 68.0774C99.6856 68.0959 99.6398 68.1051 99.5935 68.1051L99.5986 68.1102ZM95.3248 63.5486C95.6163 64.339 96.5875 66.3769 99.2325 67.3013L98.9837 62.8239C97.7524 63.0027 96.5314 63.2445 95.3248 63.5486Z" fill="#333333"></path> <path d="M116.15 60.9707C116.15 60.9707 120.468 60.9435 124.786 61.6122C124.786 61.6122 120.824 65.0645 116.433 66.2704L116.15 60.9707Z" fill="#333333"></path> <path d="M116.438 66.6052C116.351 66.6057 116.268 66.5723 116.204 66.5127C116.141 66.4532 116.103 66.3715 116.098 66.2847L115.813 60.9856C115.81 60.9393 115.817 60.8936 115.833 60.8505C115.849 60.8074 115.873 60.7683 115.905 60.7344C115.936 60.701 115.974 60.6743 116.016 60.6564C116.059 60.6379 116.104 60.6281 116.15 60.6281C116.194 60.6281 120.545 60.6086 124.84 61.2732C124.904 61.2829 124.963 61.3112 125.012 61.3538C125.061 61.3964 125.096 61.4519 125.114 61.5135C125.132 61.5757 125.131 61.6414 125.113 61.703C125.095 61.7652 125.06 61.8207 125.011 61.8628C124.847 62.0061 120.94 65.3808 116.529 66.5929C116.5 66.6011 116.469 66.6057 116.438 66.6052ZM116.511 61.3081L116.754 65.8209C119.888 64.8523 122.776 62.7733 123.973 61.8319C121.499 61.5104 119.007 61.3358 116.511 61.3081Z" fill="#333333"></path> <path d="M105.252 75.8493C105.769 75.8493 106.188 75.4313 106.188 74.9156C106.188 74.4 105.769 73.9819 105.252 73.9819C104.735 73.9819 104.315 74.4 104.315 74.9156C104.315 75.4313 104.735 75.8493 105.252 75.8493Z" fill="#673BE6"></path> <path d="M105.251 76.1881C104.998 76.1886 104.751 76.1146 104.541 75.9749C104.33 75.8352 104.166 75.6365 104.069 75.4033C103.972 75.1707 103.947 74.9144 103.996 74.6674C104.045 74.4203 104.167 74.1933 104.346 74.0151C104.525 73.8369 104.752 73.7157 105 73.6669C105.248 73.6176 105.505 73.6433 105.738 73.7403C105.971 73.8369 106.171 74.0007 106.311 74.2108C106.451 74.4203 106.525 74.6674 106.524 74.919C106.522 75.2554 106.388 75.5774 106.15 75.8152C105.911 76.053 105.588 76.187 105.251 76.1881ZM105.251 74.3207C105.133 74.3202 105.018 74.3541 104.919 74.4193C104.821 74.484 104.744 74.5765 104.698 74.6848C104.653 74.7932 104.64 74.9129 104.662 75.0279C104.685 75.1435 104.741 75.2498 104.824 75.3335C104.907 75.4172 105.013 75.4742 105.128 75.4978C105.244 75.5214 105.364 75.5107 105.473 75.466C105.582 75.4218 105.676 75.3463 105.742 75.2487C105.808 75.1517 105.844 75.0366 105.844 74.919C105.845 74.7613 105.783 74.6098 105.672 74.4974C105.56 74.3854 105.409 74.3217 105.251 74.3207Z" fill="#673BE6"></path> <path d="M109.451 75.7233C109.968 75.7233 110.387 75.3053 110.387 74.7897C110.387 74.274 109.968 73.856 109.451 73.856C108.934 73.856 108.515 74.274 108.515 74.7897C108.515 75.3053 108.934 75.7233 109.451 75.7233Z" fill="#673BE6"></path> <path d="M109.451 76.0635C109.198 76.0635 108.952 75.989 108.741 75.8493C108.531 75.7091 108.367 75.5103 108.27 75.2777C108.173 75.045 108.148 74.7887 108.197 74.5417C108.247 74.2947 108.368 74.0677 108.547 73.8895C108.725 73.7107 108.953 73.5895 109.201 73.5402C109.449 73.4909 109.705 73.5161 109.939 73.6126C110.172 73.7092 110.372 73.8725 110.512 74.0815C110.653 74.2911 110.727 74.5376 110.727 74.7898C110.727 75.1272 110.593 75.4507 110.353 75.6896C110.114 75.9284 109.789 76.0629 109.451 76.0635ZM109.451 74.195C109.333 74.1945 109.217 74.2294 109.119 74.2947C109.021 74.3604 108.944 74.4534 108.899 74.5622C108.853 74.6711 108.841 74.7908 108.864 74.9064C108.887 75.0219 108.944 75.1282 109.028 75.2119C109.111 75.2951 109.218 75.3521 109.334 75.3747C109.45 75.3978 109.57 75.386 109.679 75.3408C109.788 75.2956 109.882 75.2191 109.947 75.121C110.013 75.0229 110.047 74.9074 110.047 74.7898C110.047 74.6316 109.985 74.4806 109.873 74.3691C109.761 74.2577 109.609 74.195 109.451 74.195Z" fill="#673BE6"></path> <path d="M83.4245 99.0178L81.4531 109.835C82.6942 110.029 82.9388 110.113 84.3669 110.103L83.4245 99.0178Z" fill="#333333"></path> <path d="M84.1451 110.443C83.3886 110.455 82.6326 110.39 81.8895 110.249L81.4039 110.169C81.3591 110.162 81.3163 110.146 81.2777 110.123C81.2396 110.099 81.2061 110.068 81.1799 110.031C81.1273 109.956 81.1067 109.864 81.1222 109.774L83.0941 98.9564C83.109 98.8758 83.1528 98.8028 83.2171 98.752C83.2815 98.7006 83.3624 98.675 83.4448 98.6786C83.5266 98.6827 83.6049 98.716 83.6641 98.7731C83.7234 98.8301 83.7599 98.9066 83.7671 98.9882L84.7111 110.073C84.7157 110.12 84.7101 110.167 84.6946 110.211C84.6797 110.255 84.6555 110.296 84.6241 110.33C84.5921 110.365 84.554 110.392 84.5113 110.412C84.4685 110.431 84.4222 110.441 84.3753 110.442L84.1451 110.443ZM81.854 109.556L82.0033 109.58C82.6625 109.707 83.332 109.769 84.003 109.764L83.3067 101.586L81.854 109.556Z" fill="#333333"></path> <path d="M55.6279 104.717C55.6279 104.717 58.1029 102.271 61.6305 100.676C60.8751 102.486 60.0207 104.255 59.0701 105.971L55.6279 104.717Z" fill="#333333"></path> <path d="M59.074 106.31C59.0343 106.31 58.9947 106.303 58.9571 106.29L55.515 105.036C55.4614 105.016 55.4135 104.983 55.3754 104.94C55.3378 104.897 55.3115 104.845 55.2997 104.789C55.2873 104.733 55.2899 104.675 55.3069 104.62C55.3239 104.566 55.3548 104.516 55.3965 104.476C57.1959 102.789 59.2558 101.401 61.4975 100.367C61.5593 100.339 61.6278 100.33 61.6947 100.341C61.7617 100.353 61.824 100.384 61.8729 100.431C61.9218 100.478 61.9558 100.538 61.9702 100.604C61.9847 100.671 61.979 100.739 61.9538 100.803C61.1921 102.624 60.3316 104.402 59.3758 106.13C59.3469 106.184 59.3032 106.23 59.2501 106.262C59.1971 106.294 59.1358 106.31 59.074 106.31ZM56.272 104.589L58.9164 105.557C59.8449 103.86 60.5679 102.291 60.9681 101.378C59.2774 102.254 57.7005 103.332 56.272 104.589Z" fill="#333333"></path> <path d="M49.1983 111.584C49.1983 111.584 47.5153 113.177 46.3721 115.875C46.3721 115.875 50.0486 115.072 51.6337 113.55L49.1983 111.584Z" fill="#333333"></path> <path d="M46.3712 116.214C46.315 116.214 46.2596 116.2 46.2099 116.174C46.1603 116.147 46.1181 116.109 46.087 116.063C46.0558 116.016 46.0368 115.962 46.0317 115.907C46.0265 115.851 46.0354 115.795 46.0575 115.743C47.2162 113.011 48.8926 111.405 48.9637 111.338C49.0234 111.282 49.1017 111.248 49.1841 111.245C49.2665 111.242 49.3473 111.269 49.4112 111.321L51.8465 113.286C51.8841 113.317 51.9145 113.355 51.9367 113.397C51.9583 113.44 51.9707 113.488 51.9727 113.535C51.9748 113.584 51.9665 113.632 51.9485 113.677C51.931 113.721 51.9037 113.761 51.8687 113.795C50.2331 115.364 46.5975 116.173 46.444 116.206C46.4201 116.211 46.3957 116.214 46.3712 116.214ZM49.2248 112.042C48.3174 113.039 47.559 114.16 46.9724 115.373C47.995 115.093 49.9416 114.474 51.1045 113.559L49.2248 112.042Z" fill="#333333"></path> <path d="M72.0431 130.739C71.5384 130.739 71.0719 130.481 70.6573 130.249C70.5533 130.191 70.4503 130.134 70.3483 130.081C69.5784 129.687 68.4115 129.591 66.9355 129.47C65.6841 129.367 64.2674 129.249 62.6833 128.922C50.4938 126.404 42.632 124.315 36.2545 116.68C36.2156 116.634 36.1899 116.578 36.1802 116.518C36.1704 116.458 36.177 116.396 36.1991 116.34C36.2212 116.283 36.2581 116.234 36.306 116.197C36.3538 116.159 36.4109 116.135 36.4711 116.127C40.7758 115.565 43.7654 113.878 46.789 110.302C46.848 110.236 46.9303 110.195 47.0186 110.189C47.1069 110.183 47.1942 110.211 47.2619 110.268C47.3296 110.325 47.3724 110.406 47.3811 110.494C47.3898 110.582 47.3639 110.67 47.3087 110.739C44.3502 114.237 41.2867 116.048 37.1724 116.71C43.341 123.798 51.0299 125.816 62.8208 128.258C64.3642 128.577 65.7604 128.693 66.9906 128.794C68.5449 128.921 69.7684 129.023 70.6583 129.478C70.767 129.533 70.8767 129.595 70.9884 129.657C71.4287 129.902 71.8454 130.133 72.2239 130.044C72.5504 129.962 72.7301 129.657 72.9376 129.311C73.0138 129.184 73.0911 129.053 73.1786 128.929C73.2028 128.889 73.2343 128.854 73.2724 128.827C73.3105 128.8 73.3537 128.78 73.3996 128.77C73.4454 128.76 73.4923 128.76 73.5386 128.769C73.5844 128.778 73.6277 128.797 73.6663 128.824C73.7044 128.85 73.7369 128.885 73.7611 128.925C73.7858 128.964 73.8018 129.009 73.8079 129.055C73.8146 129.101 73.811 129.149 73.7987 129.193C73.7858 129.239 73.7642 129.28 73.7343 129.316C73.6622 129.413 73.5942 129.532 73.5226 129.653C73.2729 130.072 72.9891 130.549 72.3892 130.698C72.2759 130.725 72.16 130.739 72.0431 130.739Z" fill="#333333"></path> <path d="M41.632 115.108C41.5822 115.108 41.533 115.098 41.4878 115.076C41.4426 115.055 41.4027 115.025 41.3708 114.986C37.8518 110.79 34.0163 109.277 29.9553 107.675C25.8944 106.073 21.6994 104.419 17.8415 99.8931C16.5594 98.3913 15.6503 95.3586 17.08 93.8302C17.1416 93.7645 17.2268 93.7254 17.317 93.7224C17.4072 93.7193 17.4949 93.7522 17.5608 93.8138C17.6268 93.8749 17.6655 93.9602 17.6686 94.05C17.6717 94.1399 17.6389 94.2272 17.5773 94.293C16.438 95.5096 17.2937 98.2054 18.3543 99.4539C22.1064 103.851 26.2217 105.474 30.204 107.044C34.1648 108.607 38.2597 110.223 41.8904 114.551C41.9482 114.621 41.9762 114.709 41.9682 114.799C41.9602 114.889 41.9168 114.971 41.8477 115.029C41.7874 115.08 41.711 115.108 41.632 115.108Z" fill="#333333"></path> <path d="M39.6158 112.66C39.6158 112.66 37.8675 113.932 36.4854 116.289C36.4854 116.289 39.982 115.986 41.6331 114.77L39.6158 112.66Z" fill="#333333"></path> <path d="M36.4865 116.628C36.4268 116.628 36.3682 116.612 36.3167 116.582C36.2651 116.552 36.2224 116.508 36.1929 116.456C36.1634 116.405 36.148 116.347 36.1484 116.287C36.1488 116.227 36.1649 116.169 36.1951 116.118C37.5967 113.727 39.344 112.437 39.4178 112.385C39.4846 112.337 39.5667 112.314 39.6489 112.322C39.731 112.329 39.8077 112.366 39.8646 112.426L41.8781 114.537C41.9113 114.572 41.9367 114.613 41.9525 114.658C41.9684 114.704 41.9745 114.752 41.9703 114.8C41.9665 114.848 41.9523 114.895 41.9288 114.936C41.9054 114.978 41.8732 115.015 41.8343 115.043C40.1278 116.302 36.6623 116.616 36.5156 116.629L36.4865 116.628ZM39.5849 113.119C38.6477 113.916 37.8279 114.841 37.1499 115.866C38.1338 115.727 39.9433 115.392 41.1049 114.704L39.5849 113.119Z" fill="#333333"></path> <path d="M35.8209 28.0683C35.0913 28.0683 34.466 27.9154 33.9449 27.6097C33.4238 27.304 33.0208 26.8697 32.7359 26.3069C32.458 25.7372 32.319 25.0667 32.319 24.2954C32.319 23.7187 32.3989 23.2011 32.5587 22.7425C32.7185 22.277 32.9478 21.881 33.2466 21.5544C33.5454 21.2209 33.9101 20.9673 34.3409 20.7936C34.7787 20.6199 35.272 20.533 35.8209 20.533C36.2378 20.533 36.6373 20.5921 37.0194 20.7102C37.4085 20.8283 37.742 20.9951 38.02 21.2105C38.1311 21.2869 38.2041 21.3737 38.2388 21.471C38.2736 21.5683 38.277 21.6621 38.2493 21.7524C38.2284 21.8358 38.1832 21.9088 38.1138 21.9713C38.0512 22.0269 37.9713 22.0581 37.8741 22.0651C37.7768 22.0651 37.6726 22.0269 37.5614 21.9504C37.3182 21.7628 37.0507 21.6274 36.7589 21.544C36.474 21.4537 36.1683 21.4085 35.8417 21.4085C35.3067 21.4085 34.8516 21.5231 34.4764 21.7524C34.1082 21.9748 33.8268 22.3013 33.6322 22.7321C33.4446 23.1559 33.3508 23.6771 33.3508 24.2954C33.3508 24.9069 33.4446 25.4315 33.6322 25.8692C33.8268 26.3 34.1082 26.63 34.4764 26.8593C34.8516 27.0817 35.3067 27.1928 35.8417 27.1928C36.1683 27.1928 36.4775 27.1477 36.7693 27.0573C37.0681 26.967 37.3425 26.828 37.5927 26.6404C37.7038 26.564 37.8046 26.5293 37.8949 26.5362C37.9922 26.5432 38.0721 26.5744 38.1346 26.63C38.1971 26.6787 38.2388 26.7481 38.2597 26.8385C38.2875 26.9218 38.2875 27.0087 38.2597 27.099C38.2319 27.1893 38.1694 27.2693 38.0721 27.3387C37.7872 27.5819 37.4467 27.766 37.0507 27.8911C36.6616 28.0092 36.2517 28.0683 35.8209 28.0683ZM41.0925 28.0474C40.9396 28.0474 40.8215 28.0058 40.7381 27.9224C40.6548 27.839 40.6131 27.7174 40.6131 27.5576V23.6597H39.1331C38.8552 23.6597 38.7162 23.5311 38.7162 23.2741C38.7162 23.1559 38.7544 23.0656 38.8309 23.0031C38.9073 22.9336 39.008 22.8989 39.1331 22.8989H43.031C43.3159 22.8989 43.4583 23.0239 43.4583 23.2741C43.4583 23.3991 43.4201 23.4964 43.3437 23.5659C43.2742 23.6284 43.17 23.6597 43.031 23.6597H41.5615V27.5576C41.5615 27.7174 41.5198 27.839 41.4364 27.9224C41.36 28.0058 41.2453 28.0474 41.0925 28.0474ZM45.8575 28.0683C45.5101 28.0683 45.1939 27.9988 44.9091 27.8598C44.6311 27.7209 44.4123 27.5333 44.2525 27.297C44.0996 27.0608 44.0232 26.7968 44.0232 26.505C44.0232 26.1298 44.117 25.8345 44.3046 25.6191C44.4922 25.4037 44.8083 25.2508 45.253 25.1605C45.6977 25.0632 46.2952 25.0146 47.0456 25.0146H47.5355V25.6191H47.0665C46.5314 25.6191 46.1076 25.6434 45.7949 25.692C45.4892 25.7407 45.2738 25.8275 45.1488 25.9526C45.0237 26.0707 44.9612 26.2375 44.9612 26.4528C44.9612 26.7238 45.055 26.9462 45.2426 27.1199C45.4371 27.2936 45.7011 27.3804 46.0347 27.3804C46.2987 27.3804 46.5314 27.3179 46.7329 27.1928C46.9344 27.0608 47.0942 26.8871 47.2124 26.6717C47.3305 26.4494 47.3895 26.1958 47.3895 25.9109V24.7123C47.3895 24.3024 47.3062 24.0071 47.1394 23.8264C46.9727 23.6388 46.6913 23.545 46.2952 23.545C46.0659 23.545 45.8297 23.5763 45.5865 23.6388C45.3433 23.7014 45.0897 23.7987 44.8257 23.9307C44.7215 23.9793 44.6311 23.9967 44.5547 23.9828C44.4783 23.9619 44.4157 23.9202 44.3671 23.8577C44.3254 23.7882 44.3011 23.7153 44.2941 23.6388C44.2941 23.5555 44.3115 23.4756 44.3463 23.3991C44.3879 23.3227 44.4574 23.2671 44.5547 23.2324C44.8604 23.0795 45.1627 22.9718 45.4614 22.9093C45.7671 22.8398 46.052 22.8051 46.3161 22.8051C46.7677 22.8051 47.1394 22.878 47.4312 23.0239C47.723 23.1629 47.9419 23.3818 48.0878 23.6805C48.2337 23.9724 48.3067 24.3476 48.3067 24.8061V27.5576C48.3067 27.7174 48.2685 27.839 48.192 27.9224C48.1156 28.0058 48.0044 28.0474 47.8585 28.0474C47.7196 28.0474 47.6084 28.0058 47.525 27.9224C47.4486 27.839 47.4104 27.7174 47.4104 27.5576V26.8176H47.5042C47.4486 27.0747 47.3444 27.297 47.1915 27.4846C47.0387 27.6722 46.8476 27.8182 46.6183 27.9224C46.396 28.0197 46.1423 28.0683 45.8575 28.0683ZM50.3801 29.9234C50.2342 29.9234 50.1196 29.8818 50.0362 29.7984C49.9528 29.715 49.9111 29.5969 49.9111 29.444V23.3053C49.9111 23.1455 49.9528 23.0274 50.0362 22.951C50.1196 22.8676 50.2342 22.8259 50.3801 22.8259C50.533 22.8259 50.6476 22.8676 50.7241 22.951C50.8075 23.0274 50.8491 23.1455 50.8491 23.3053V24.2538L50.7345 24.0662C50.8457 23.684 51.0645 23.3783 51.3911 23.149C51.7177 22.9197 52.1102 22.8051 52.5688 22.8051C53.0204 22.8051 53.413 22.9128 53.7465 23.1282C54.08 23.3366 54.3406 23.6388 54.5282 24.0349C54.7158 24.424 54.8096 24.8895 54.8096 25.4315C54.8096 25.9665 54.7158 26.4355 54.5282 26.8385C54.3475 27.2345 54.087 27.5402 53.7465 27.7556C53.413 27.9641 53.0204 28.0683 52.5688 28.0683C52.1172 28.0683 51.7281 27.9536 51.4015 27.7244C51.075 27.4951 50.8561 27.1928 50.7449 26.8176H50.8596V29.444C50.8596 29.5969 50.8179 29.715 50.7345 29.7984C50.6511 29.8818 50.533 29.9234 50.3801 29.9234ZM52.3499 27.3179C52.6487 27.3179 52.9093 27.2449 53.1316 27.099C53.3609 26.9531 53.5381 26.7412 53.6631 26.4633C53.7882 26.1853 53.8507 25.8414 53.8507 25.4315C53.8507 24.82 53.7153 24.3545 53.4443 24.0349C53.1733 23.7153 52.8085 23.5555 52.3499 23.5555C52.0442 23.5555 51.7767 23.6284 51.5474 23.7743C51.3251 23.9133 51.1514 24.1217 51.0263 24.3997C50.9082 24.6776 50.8491 25.0215 50.8491 25.4315C50.8491 26.0429 50.9846 26.5119 51.2556 26.8385C51.5266 27.1581 51.8914 27.3179 52.3499 27.3179ZM57.6825 28.0474C57.5297 28.0474 57.4116 28.0058 57.3282 27.9224C57.2448 27.839 57.2031 27.7174 57.2031 27.5576V23.6597H55.7232C55.4452 23.6597 55.3063 23.5311 55.3063 23.2741C55.3063 23.1559 55.3445 23.0656 55.4209 23.0031C55.4973 22.9336 55.5981 22.8989 55.7232 22.8989H59.6211C59.9059 22.8989 60.0484 23.0239 60.0484 23.2741C60.0484 23.3991 60.0102 23.4964 59.9337 23.5659C59.8643 23.6284 59.76 23.6597 59.6211 23.6597H58.1515V27.5576C58.1515 27.7174 58.1098 27.839 58.0265 27.9224C57.95 28.0058 57.8354 28.0474 57.6825 28.0474ZM61.2385 26.0464C61.1482 26.0464 61.0718 26.0186 61.0093 25.963C60.9537 25.9005 60.9224 25.8067 60.9155 25.6816L60.6862 21.1688C60.6723 20.9812 60.714 20.8318 60.8112 20.7206C60.9085 20.6095 61.0509 20.5539 61.2385 20.5539C61.4192 20.5539 61.5582 20.6095 61.6554 20.7206C61.7527 20.8318 61.7944 20.9812 61.7805 21.1688L61.5512 25.6816C61.5443 25.8067 61.513 25.9005 61.4574 25.963C61.4018 26.0186 61.3289 26.0464 61.2385 26.0464ZM61.2385 28.0162C61.0579 28.0162 60.9085 27.9571 60.7904 27.839C60.6723 27.7209 60.6132 27.5715 60.6132 27.3908C60.6132 27.2102 60.6723 27.0643 60.7904 26.9531C60.9085 26.8419 61.0579 26.7864 61.2385 26.7864C61.4331 26.7864 61.5825 26.8419 61.6867 26.9531C61.7979 27.0643 61.8535 27.2102 61.8535 27.3908C61.8535 27.5715 61.7979 27.7209 61.6867 27.839C61.5825 27.9571 61.4331 28.0162 61.2385 28.0162Z" fill="white"></path> </g> <defs> <clipPath id="clip0_121_929"> <rect width="148" height="115" fill="white"></rect> </clipPath> </defs> </svg> 